<?xml version="1.0" encoding="utf-8"?>
<!-- Generator: Adobe Illustrator 27.5.0, SVG Export Plug-In . SVG Version: 6.00 Build 0)  -->
<svg version="1.1" id="Capa_2" xmlns="http://www.w3.org/2000/svg" xmlns:xlink="http://www.w3.org/1999/xlink" x="0px" y="0px"
	 viewBox="0 0 2122 2122" style="enable-background:new 0 0 2122 2122;" xml:space="preserve">
<path style="fill:#964392;" d="M1623.039,696.166c-47.549-96.808-218.906-88.773-306.292-122.685
	c-130.353-50.587-166.953-187.847-258.661-279.98c-87.561-87.969-246.285-123.409-333.196-15.336
	c-41.477,51.576-57.631,119.06-64.232,184.914c-7.326,73.083-6.316,147.535-15.864,220.109
	c-9.305,70.716-32.2,139.573-66.739,201.96c-28.612,51.683-99.48,107.649-89.65,171.53
	c15.792,102.618,171.404,141.228,256.17,153.461c97.536,14.076,202.367,9.691,298.762-10.539c11.755-2.467,23.478-5.16,35.16-8.077
	c4.581,33.442,4.966,67.589,1.547,101.032c-9.524,93.146-46.315,181.602-92.14,263.253c-32.36,57.661-70.767,118.03-65.209,183.918
	c7.216,85.534,89.555,148.808,173.833,165.094c96.186,18.587,200.135-11.749,272.567-77.71
	c72.431-65.961,112.229-165.634,107.132-263.466c-5.181-99.475-53.117-191.017-99.996-278.906
	c-30.396-56.986-60.793-113.974-91.188-170.961c75.38-38.896,145.386-88.026,206.203-146.545
	c44.841-43.149,118.492-116.069,137.827-189.222C1636.417,750.223,1635.926,722.402,1623.039,696.166z"/>
<path style="fill:#5977BA;" d="M1080.044,1292.556c-9.524,93.146-46.314,181.601-92.139,263.253
	c-32.361,57.661-70.767,118.03-65.21,183.917c7.216,85.535,89.555,148.809,173.833,165.096
	c96.186,18.587,200.135-11.748,272.567-77.71c72.431-65.961,112.228-165.634,107.132-263.467
	c-5.181-99.475-53.116-191.016-99.996-278.905c-30.396-56.987-60.792-113.974-91.189-170.961
	c-65.614,33.856-135.301,59.959-206.545,77.745C1083.078,1224.964,1083.464,1259.113,1080.044,1292.556z"/>
<path style="fill:#832985;" d="M1449.337,986.579c-27.522-34.388-58.199-66.24-91.655-94.913
	c-18.568,39.192-46.284,74.093-76.667,104.699c-30.157,30.376-63.853,57.017-100.202,79.594
	c-35.381,21.976-72.978,40.699-111.926,56.055c-1.587,17.114-3.43,34.14-5.471,51.047c-0.502,4.159-1.016,8.31-1.541,12.455
	l1.03-0.24c0.991-0.23,1.983-0.46,2.974-0.693c0.687-0.161,1.372-0.326,2.058-0.489c0.627-0.149,1.254-0.297,1.88-0.447
	c0.982-0.235,1.964-0.474,2.946-0.712l0.932-0.226c1.004-0.245,2.008-0.493,3.01-0.741l0.971-0.24
	c0.709-0.176,1.417-0.355,2.126-0.533c1.02-0.256,2.04-0.514,3.059-0.774c0.674-0.172,1.347-0.343,2.02-0.515
	c1.478-0.38,2.955-0.763,4.431-1.149c0.643-0.169,1.286-0.339,1.929-0.509c1.018-0.268,2.036-0.539,3.052-0.812
	c0.688-0.184,1.376-0.368,2.064-0.554c1.479-0.399,2.957-0.802,4.434-1.208c1.363-0.376,2.728-0.755,4.091-1.136
	c1.424-0.399,2.848-0.802,4.271-1.208c0.46-0.131,0.919-0.263,1.379-0.395c1.137-0.326,2.274-0.654,3.411-0.984l1.297-0.378
	c1.366-0.399,2.731-0.801,4.095-1.206l0.537-0.159c1.534-0.456,3.067-0.917,4.599-1.382l1.15-0.351
	c1.179-0.359,2.357-0.72,3.535-1.083l1.316-0.407c1.297-0.402,2.592-0.807,3.887-1.215l0.702-0.221
	c1.532-0.483,3.062-0.971,4.592-1.463l1.111-0.359c1.172-0.378,2.342-0.758,3.513-1.141c0.45-0.147,0.9-0.294,1.349-0.442
	c1.217-0.4,2.432-0.802,3.646-1.206l0.96-0.319c1.513-0.505,3.024-1.014,4.535-1.527l1.011-0.345
	c1.178-0.402,2.354-0.806,3.531-1.211c0.494-0.171,0.987-0.342,1.481-0.513c1.102-0.383,2.205-0.767,3.306-1.155l1.249-0.438
	c1.495-0.528,2.988-1.058,4.482-1.592l0.703-0.253c1.278-0.459,2.555-0.921,3.831-1.385c0.452-0.164,0.904-0.329,1.354-0.494
	c1.116-0.408,2.232-0.818,3.345-1.23l1.268-0.469c1.502-0.558,3.002-1.118,4.502-1.684c3.742-1.411,7.476-2.846,11.201-4.304
	c6.208-2.43,12.392-4.926,18.551-7.487c1.231-0.512,2.462-1.027,3.692-1.545c2.459-1.035,4.913-2.079,7.364-3.135
	c2.45-1.055,4.896-2.121,7.338-3.197c4.883-2.152,9.749-4.346,14.595-6.581c4.544-2.094,9.071-4.226,13.581-6.392
	c1.504-0.722,3.005-1.449,4.504-2.179c1.2-0.585,2.398-1.171,3.596-1.761c2.393-1.179,4.782-2.367,7.167-3.566
	c2.883-1.45,5.758-2.917,8.625-4.396c3.061-1.579,6.112-3.174,9.154-4.786c2.357-1.25,4.709-2.51,7.055-3.779
	c8.212-4.444,16.355-9.012,24.424-13.701c4.178-2.428,8.336-4.89,12.474-7.384c1.571-0.947,3.14-1.896,4.704-2.852
	c1.138-0.695,2.273-1.392,3.408-2.092c2.268-1.399,4.531-2.809,6.786-4.228c2.256-1.419,4.506-2.848,6.748-4.288
	c3.364-2.158,6.712-4.339,10.047-6.542c1.111-0.734,2.22-1.471,3.329-2.21c29.573-19.731,57.926-41.206,84.78-64.362
	C1455.116,993.867,1452.243,990.21,1449.337,986.579z"/>
<path style="fill:#832985;" d="M1578.601,825.823c-40.993-19.977-85.108-35.1-128.006-49.805
	c-26.523-9.091-53.354-18.289-79.627-28.707l0.323,1.066c6.5,21.761,9.812,43.855,7.961,66.587
	c-1.871,22.973-7.95,45.175-16.929,66.365c-0.461,1.09-0.933,2.175-1.409,3.258c34.421,29.316,65.954,61.956,94.198,97.238
	c2.863,3.577,5.695,7.181,8.491,10.812c9.408-8.26,18.627-16.728,27.644-25.404c11.911-11.462,25.855-25.023,40.273-40.132
	c1.273-1.333,2.548-2.679,3.827-4.036c0.853-0.904,1.706-1.814,2.56-2.729c7.262-7.776,14.586-15.919,21.776-24.358
	c0.846-0.993,1.69-1.99,2.532-2.991c0.422-0.5,0.842-1.002,1.261-1.504c1.679-2.01,3.349-4.036,5.008-6.076
	c0.414-0.51,0.828-1.022,1.241-1.534c2.946-3.652,5.854-7.352,8.706-11.093c8.559-11.222,16.631-22.818,23.829-34.648
	C1594.515,833.822,1586.618,829.729,1578.601,825.823z"/>
<path style="fill:#82A8D9;" d="M1167.647,1774.246c13.427-22.304,16.277-50.257,7.61-74.65
	c-12.495-35.165-47.692-56.918-60.748-90.999c-1.882-4.911-3.464-9.88-4.793-14.894c-12.417,74.775-22.12,150.958-22.43,225.569
	c5.619-0.024,11.258-0.534,16.871-1.575C1130.444,1812.821,1154.219,1796.551,1167.647,1774.246z"/>
<path style="fill:#82A8D9;" d="M1033.869,1548.582c19.424-50.507,40.371-111.163,54.157-176.45
	c-1.274-2.801-2.627-5.588-4.071-8.359c-0.408-0.781-1.624-0.649-1.837,0.202c-16.447,65.823-40.321,129.923-71.067,190.807
	c-18.499,36.63-39.848,73.251-44.768,113.649c-0.071,0.579-0.138,1.158-0.202,1.739c-1.533,13.962-0.952,28.137,1.653,41.951
	c8.68-21.723,17.556-43.3,26.375-64.74C1007.419,1615.033,1021.177,1581.586,1033.869,1548.582z"/>
<path style="fill:#82A8D9;" d="M1082.293,1819.167c0.334-77.863,10.837-157.37,23.995-235.208c0.183-1.079,0.368-2.16,0.552-3.239
	c-5.506-30.446-3.094-62.201-1.567-92.878c1.825-36.684-0.16-73.223-13.858-107.745c-13.84,62.951-34.073,121.353-52.888,170.279
	c-12.714,33.055-26.485,66.531-39.803,98.904c-9.736,23.667-19.54,47.502-29.074,71.515c3.584,14.138,9.326,27.758,17.14,40.217
	C1007.051,1793.318,1043.876,1817.379,1082.293,1819.167z"/>
<path style="fill:#1B3E77;" d="M1088.026,1372.133c-13.786,65.287-34.733,125.943-54.157,176.45
	c-12.692,33.003-26.451,66.451-39.759,98.799c-8.82,21.44-17.695,43.017-26.375,64.74c-8.904,22.281-17.6,44.717-25.822,67.318
	c1.098,1.758,2.238,3.495,3.42,5.21c7.739-21.428,15.922-42.71,24.317-63.855c9.534-24.013,19.338-47.848,29.074-71.515
	c13.318-32.373,27.089-65.849,39.803-98.904c18.815-48.926,39.048-107.328,52.888-170.279
	c13.284-60.42,20.677-125.029,15.276-189.476c-0.698-2.002-1.401-4.003-2.112-5.999c-1.118,0.312-2.235,0.624-3.354,0.932
	C1107.252,1248.808,1100.638,1312.408,1088.026,1372.133z"/>
<path style="fill:#1B3E77;" d="M1106.84,1580.719c-0.184,1.08-0.369,2.16-0.552,3.239c-13.158,77.839-23.661,157.345-23.995,235.208
	c-0.064,15.033,0.25,30.006,0.998,44.893c1.685,0.393,3.372,0.771,5.061,1.137c-0.794-15.224-1.13-30.541-1.067-45.925
	c0.31-74.61,10.013-150.794,22.43-225.569c0.494-2.973,0.991-5.944,1.493-8.912c2.675-15.82,5.428-31.683,8.19-47.581
	c15.591-89.786,31.492-181.362,33.982-272.186c-1.681-0.117-3.342-0.425-4.973-0.951c-2.408,90.776-18.322,182.428-33.924,272.282
	C1111.909,1551.176,1109.343,1565.967,1106.84,1580.719z"/>
<path style="fill:#1B3E77;" d="M1194.761,1598.918c5.454,95.721,16.937,180.951,34.985,257.697c1.573-0.586,3.142-1.187,4.702-1.806
	c-17.892-76.289-29.284-161.018-34.708-256.174c-4.494-78.886-4.904-159.288-5.298-237.042c-0.195-38.256-0.392-77.017-1.078-115.97
	c-1.554,1.207-3.2,2.489-4.925,3.798c0.634,37.679,0.825,75.175,1.014,112.197
	C1189.847,1439.435,1190.256,1519.903,1194.761,1598.918z"/>
<path style="fill:#1B3E77;" d="M1334.709,1782.165c1.538-1.784,3.056-3.587,4.552-5.409c-6.684-79.393-15.192-158.275-26.71-236.833
	c-17.512-119.441-40.525-227.492-69.55-326.041c-1.581,0.581-3.132,1.2-4.654,1.857c28.895,98.202,51.816,205.879,69.268,324.909
	C1319.359,1620.735,1327.97,1701.177,1334.709,1782.165z"/>
<path style="fill:#1B3E77;" d="M1405.922,1616.489c0.925-7.111,1.729-14.245,2.423-21.396c-3.57-29.056-7.367-58.438-11.709-87.399
	c-13.394-89.329-34.835-193.575-82.075-293.459c-2.241-1.04-4.535-1.981-6.885-2.82c48.643,100.85,70.469,206.609,84.024,297.019
	C1397.073,1544.262,1401.612,1580.76,1405.922,1616.489z"/>
<path style="fill:#2B55A0;" d="M1269.251,1121.74c-1.197,0.589-2.396,1.176-3.596,1.761c-1.499,0.73-3,1.456-4.504,2.179
	c-4.509,2.167-9.037,4.298-13.581,6.392c-4.847,2.235-9.713,4.428-14.595,6.581c-2.442,1.076-4.888,2.142-7.338,3.197
	c-2.451,1.056-4.906,2.1-7.364,3.135c-1.23,0.517-2.461,1.032-3.692,1.545c-6.158,2.561-12.342,5.057-18.551,7.487
	c-3.725,1.458-7.459,2.894-11.201,4.304c-1.499,0.566-3,1.126-4.502,1.684l-1.268,0.469c-1.113,0.412-2.229,0.822-3.345,1.23
	c-0.45,0.165-0.902,0.33-1.354,0.494c-1.276,0.465-2.553,0.927-3.831,1.385l-0.703,0.253c-1.493,0.534-2.986,1.064-4.482,1.592
	l-1.249,0.438c-1.101,0.387-2.204,0.772-3.306,1.155c-0.493,0.171-0.987,0.342-1.481,0.513c-1.177,0.406-2.353,0.81-3.531,1.211
	l-1.011,0.345c-1.511,0.513-3.023,1.022-4.535,1.527l-0.96,0.319c-1.214,0.405-2.43,0.807-3.646,1.206
	c-0.449,0.148-0.9,0.295-1.349,0.442c-1.171,0.383-2.341,0.762-3.513,1.141l-1.111,0.359c-1.53,0.491-3.06,0.979-4.592,1.463
	l-0.702,0.221c-1.295,0.408-2.591,0.813-3.887,1.215l-1.316,0.407c-1.178,0.363-2.356,0.724-3.535,1.083l-1.15,0.351
	c-1.532,0.464-3.065,0.926-4.599,1.382l-0.537,0.159c-1.364,0.405-2.729,0.807-4.095,1.206l-1.297,0.378
	c-1.137,0.33-2.274,0.658-3.411,0.984c-0.46,0.132-0.919,0.264-1.379,0.395c-1.423,0.406-2.846,0.809-4.271,1.208l-0.303,0.086
	c0.711,1.996,1.413,3.997,2.112,5.999c4.481,12.848,8.8,25.758,14.327,38.208c5.383,12.126,13.33,30.474,27.089,35.15l0.301,0.095
	c1.631,0.526,3.292,0.834,4.973,0.951c11.911,0.832,24.832-7.843,35.058-15.604c1.725-1.309,3.372-2.591,4.925-3.798
	c1.149-0.893,2.249-1.746,3.288-2.535c13.535-10.284,26.214-20.674,41.696-27.349c1.522-0.657,3.073-1.276,4.654-1.857l0.749-0.276
	c11.475-4.102,23.728-6.748,35.948-6.842c10.091-0.077,19.401,1.593,27.977,4.651c2.35,0.839,4.644,1.78,6.885,2.82
	c30.1,13.966,50.419,45.442,63.226,76.635c22.888,55.748,30.032,118.227,32.874,177.961c1.991,41.835,1.752,84.336-2.316,126.262
	c-0.694,7.151-1.498,14.286-2.423,21.396c-0.918,7.061-1.954,14.1-3.115,21.11c-8.375,50.559-30.821,99.292-63.547,139.157
	c-1.496,1.822-3.013,3.625-4.552,5.409c-11.652,13.515-24.514,25.93-38.43,36.95c-18.781,14.873-39.656,26.907-61.832,35.695
	c-1.56,0.619-3.129,1.22-4.702,1.806c-14.843,5.53-30.234,9.618-45.942,12.139c-32.241,5.175-64.165,3.214-95.451-3.558
	c-1.689-0.366-3.376-0.744-5.061-1.137c-10.993-2.565-21.905-5.712-32.722-9.338c-35.863-12.025-71.838-29.755-96.775-59.041
	c-3.032-3.561-5.85-7.244-8.462-11.033c-1.182-1.715-2.322-3.452-3.42-5.21c-10.018-16.048-16.516-33.85-19.736-52.606
	c0,4.275,0.154,8.571,0.518,12.893c0.338,4.009,0.841,7.97,1.502,11.879c0.22,1.303,0.458,2.6,0.713,3.892
	c2.55,12.915,6.823,25.249,12.538,36.907c0.571,1.165,1.157,2.325,1.758,3.477c0.6,1.152,1.214,2.298,1.842,3.436
	c0.628,1.139,1.271,2.271,1.926,3.395c1.639,2.811,3.363,5.578,5.168,8.3c0.722,1.089,1.457,2.17,2.204,3.244
	c1.868,2.685,3.816,5.324,5.838,7.916c0.809,1.037,1.63,2.066,2.461,3.087c1.665,2.043,3.376,4.054,5.132,6.035
	c0.438,0.495,0.88,0.988,1.324,1.479c3.111,3.438,6.355,6.778,9.722,10.017c0.481,0.463,0.965,0.924,1.451,1.382
	c3.401,3.21,6.923,6.319,10.553,9.321c0.519,0.429,1.04,0.856,1.563,1.28c3.138,2.547,6.355,5.017,9.641,7.406
	c1.644,1.195,3.305,2.369,4.983,3.522c0.839,0.577,1.682,1.148,2.529,1.715c6.778,4.532,13.818,8.734,21.057,12.585
	c0.905,0.481,1.813,0.957,2.724,1.427c1.215,0.627,2.435,1.244,3.66,1.852c0.613,0.304,1.227,0.605,1.842,0.903
	c1.23,0.598,2.466,1.185,3.705,1.763c1.24,0.577,2.484,1.144,3.733,1.702c1.873,0.836,3.756,1.649,5.649,2.439
	c3.153,1.317,6.332,2.568,9.53,3.754c2.559,0.949,5.131,1.856,7.714,2.72c1.292,0.432,2.585,0.853,3.882,1.264
	c1.944,0.615,3.895,1.207,5.85,1.774c1.303,0.378,2.608,0.744,3.915,1.101c2.477,0.674,4.96,1.308,7.448,1.902l0.412,0.1
	c1.313,0.311,2.627,0.611,3.941,0.9c1.973,0.433,3.946,0.841,5.922,1.222c96.186,18.587,200.135-11.749,272.566-77.71
	c72.432-65.962,112.229-165.634,107.132-263.467c-0.971-18.651-3.445-37.024-7.135-55.146c-0.615-3.02-1.263-6.034-1.944-9.04
	c-1.021-4.51-2.116-9.005-3.278-13.484c-1.55-5.972-3.222-11.919-5.005-17.839c-0.222-0.74-0.448-1.48-0.673-2.219
	c-0.453-1.479-0.911-2.955-1.378-4.431c-0.233-0.738-0.468-1.475-0.704-2.212c-0.473-1.474-0.952-2.946-1.437-4.417
	c-0.243-0.735-0.487-1.47-0.733-2.205c-0.738-2.204-1.491-4.404-2.257-6.602c-0.255-0.732-0.512-1.464-0.771-2.196
	c-2.584-7.315-5.318-14.593-8.182-21.836c-0.286-0.724-0.575-1.448-0.864-2.172c-1.733-4.341-3.513-8.669-5.333-12.985
	c-0.607-1.439-1.219-2.876-1.834-4.312c-2.156-5.026-4.366-10.035-6.623-15.029c-0.322-0.713-0.646-1.426-0.97-2.139
	c-3.891-8.553-7.919-17.059-12.044-25.523c-0.344-0.705-0.688-1.411-1.033-2.115c-12.081-24.666-24.978-48.971-37.797-73.003
	c-30.396-56.987-60.792-113.974-91.189-170.961c-2.867,1.48-5.742,2.946-8.625,4.396
	C1274.034,1119.373,1271.645,1120.562,1269.251,1121.74z"/>
<path style="fill:#C87DB3;" d="M706.703,394.146c1.274,53.432,8.601,108.26,14.894,155.353l0.21,1.576
	c2.024,15.15,4.224,30.385,6.431,45.671c4.034,27.94,8.109,56.169,11.18,84.432c4.363-14.059,7.158-28.767,9.63-43.278
	c8.027-47.127,13.778-94.691,24.283-141.37c2.621-11.648,7.001-23.598,12.184-35.765c-22.747-64.434-33.784-118.924-33.168-164.046
	l-0.724,0.952C730.124,326.512,716.12,359.439,706.703,394.146z"/>
<path style="fill:#C87DB3;" d="M760.546,288.003c-2.132,44.25,7.698,98.541,29.459,162.565
	c11.418-25.238,25.102-51.286,32.764-77.397c-13.812-33.275-22.13-65.099-24.931-95.334
	C785.728,274.304,772.008,278.055,760.546,288.003z"/>
<path style="fill:#C87DB3;" d="M823.607,305.349c-4.104-11.551-10.448-19.447-17.891-24.013
	c2.773,25.365,9.506,51.905,20.183,79.532C829.866,342.242,830.107,323.645,823.607,305.349z"/>
<path style="fill:#C87DB3;" d="M680.28,697.738c-0.28,10.735,1.149,23.848,7.99,30.811c2.068,2.104,4.629,3.647,7.788,4.393
	c10.452,2.47,20.152-6.219,26.232-15.072c4.463-6.499,8.145-13.41,11.238-20.6c-3.14-33.249-7.947-66.554-12.696-99.454
	c-2.212-15.313-4.414-30.575-6.441-45.751l-0.212-1.574c-5.277-39.487-11.272-84.349-13.852-129.401
	c-6.02,29.415-9.396,59.648-11.783,89.383C683.545,572.764,681.911,635.269,680.28,697.738z"/>
<path style="fill:#832985;" d="M953.074,246.271c35.785,36.248,50.757,83.656,70.218,129.406
	c9.422,22.151,19.935,43.824,34.654,62.986c13.982,18.203,30.902,34.031,48.456,48.728c4.331,3.625,8.689,7.221,13.075,10.788
	c-3.615-7.372-7.191-14.743-10.753-22.087c-10.617-21.885-21.593-44.517-33.116-66.105
	c-34.409-64.454-82.213-144.205-140.951-189.136c-8.732-2.493-17.55-4.536-26.402-6.091
	C925.173,221.985,940.187,233.219,953.074,246.271z"/>
<path style="fill:#632366;" d="M1448.697,987.101c-65.791,53.604-138.807,98.815-215.674,134.705
	c-54.599,25.493-111.341,46.23-169.608,61.254c-0.502,4.159-1.016,8.31-1.541,12.455l1.03-0.24c0.991-0.23,1.983-0.46,2.974-0.693
	c0.687-0.161,1.372-0.326,2.058-0.489c0.627-0.149,1.254-0.297,1.88-0.447c0.982-0.235,1.964-0.474,2.946-0.712l0.932-0.226
	c1.004-0.245,2.008-0.493,3.01-0.741l0.971-0.24c0.709-0.176,1.417-0.355,2.126-0.533c1.02-0.256,2.04-0.514,3.059-0.774
	c0.674-0.172,1.347-0.343,2.02-0.515c1.478-0.38,2.955-0.763,4.431-1.149c0.643-0.169,1.286-0.339,1.929-0.509
	c1.018-0.268,2.036-0.539,3.052-0.812c0.688-0.184,1.376-0.368,2.064-0.554c1.479-0.399,2.957-0.802,4.434-1.208
	c1.363-0.376,2.728-0.755,4.091-1.136c1.424-0.399,2.848-0.802,4.271-1.208c0.46-0.131,0.919-0.263,1.379-0.395
	c1.137-0.326,2.274-0.654,3.411-0.984l1.297-0.378c1.366-0.399,2.731-0.801,4.095-1.206l0.537-0.159
	c1.534-0.456,3.067-0.917,4.599-1.382l1.15-0.351c1.179-0.359,2.357-0.72,3.535-1.083l1.316-0.407
	c1.297-0.402,2.592-0.807,3.887-1.215l0.702-0.221c1.532-0.483,3.062-0.971,4.592-1.463l1.111-0.359
	c1.172-0.378,2.342-0.758,3.513-1.141c0.45-0.147,0.9-0.294,1.349-0.442c1.217-0.4,2.432-0.802,3.646-1.206l0.96-0.319
	c1.513-0.505,3.024-1.014,4.535-1.527l1.011-0.345c1.178-0.402,2.354-0.806,3.531-1.211c0.494-0.171,0.987-0.342,1.481-0.513
	c1.102-0.383,2.205-0.767,3.306-1.155l1.249-0.438c1.495-0.528,2.988-1.058,4.482-1.592l0.703-0.253
	c1.278-0.459,2.555-0.921,3.831-1.385c0.452-0.164,0.904-0.329,1.354-0.494c1.116-0.408,2.232-0.818,3.345-1.23l1.268-0.469
	c1.502-0.558,3.002-1.118,4.502-1.684c3.742-1.411,7.476-2.846,11.201-4.304c6.208-2.43,12.392-4.926,18.551-7.487
	c1.231-0.512,2.462-1.027,3.692-1.545c2.459-1.035,4.913-2.079,7.364-3.135c2.45-1.055,4.896-2.121,7.338-3.197
	c4.883-2.152,9.749-4.346,14.595-6.581c4.544-2.094,9.071-4.226,13.581-6.392c1.504-0.722,3.005-1.449,4.504-2.179
	c1.2-0.585,2.398-1.171,3.596-1.761c2.393-1.179,4.782-2.367,7.167-3.566c2.883-1.45,5.758-2.917,8.625-4.396
	c3.061-1.579,6.112-3.174,9.154-4.786c2.357-1.25,4.709-2.51,7.055-3.779c8.212-4.444,16.355-9.012,24.424-13.701
	c4.178-2.428,8.336-4.89,12.474-7.384c1.571-0.947,3.14-1.896,4.704-2.852c1.138-0.695,2.273-1.392,3.408-2.092
	c2.268-1.399,4.531-2.809,6.786-4.228c2.256-1.419,4.506-2.848,6.748-4.288c3.364-2.158,6.712-4.339,10.047-6.542
	c1.111-0.734,2.22-1.471,3.329-2.21c29.573-19.731,57.926-41.206,84.78-64.362c-2.835-3.687-5.708-7.344-8.614-10.975
	L1448.697,987.101z"/>
<path style="fill:#832985;" d="M1633.806,740.367c-0.022-0.859-0.054-1.718-0.094-2.575l-0.069-1.286
	c-0.051-0.857-0.112-1.713-0.183-2.568c-0.319-3.849-0.841-7.681-1.579-11.492c-0.246-1.271-0.515-2.539-0.81-3.805l-0.302-1.265
	c-0.932-3.792-2.084-7.56-3.47-11.302l-0.471-1.246c-0.639-1.66-1.325-3.315-2.058-4.964c-0.55-1.237-1.127-2.47-1.731-3.7
	c-1.3-2.647-2.693-5.216-4.174-7.709c-0.422-0.712-0.853-1.418-1.291-2.118c-0.437-0.701-0.882-1.395-1.334-2.083
	c-0.451-0.688-0.91-1.37-1.375-2.047c-0.466-0.676-0.938-1.345-1.418-2.01c-0.479-0.664-0.965-1.323-1.458-1.976
	c-0.492-0.653-0.992-1.299-1.498-1.94c-0.506-0.641-1.018-1.276-1.539-1.906l-0.783-0.94c-0.526-0.624-1.058-1.242-1.596-1.855
	c-0.539-0.613-1.084-1.22-1.635-1.822s-1.109-1.198-1.672-1.789c-2.255-2.363-4.608-4.64-7.053-6.835
	c-0.612-0.549-1.228-1.092-1.851-1.63c-0.623-0.538-1.252-1.071-1.885-1.6c-0.635-0.528-1.274-1.052-1.919-1.57
	c-2.58-2.073-5.249-4.068-7.998-5.989c-1.719-1.2-3.469-2.372-5.25-3.515c-1.78-1.143-3.591-2.258-5.43-3.347
	c-0.736-0.436-1.476-0.867-2.221-1.294c-3.352-1.921-6.794-3.756-10.318-5.512c-0.783-0.39-1.571-0.776-2.362-1.158
	c-1.088-0.526-2.183-1.044-3.285-1.556c-2.756-1.279-5.558-2.512-8.399-3.706c-3.411-1.431-6.88-2.804-10.401-4.121
	c-1.761-0.659-3.535-1.303-5.32-1.935l-1.301-0.457c-2.172-0.758-4.361-1.497-6.565-2.219c-6.174-2.02-12.474-3.899-18.865-5.662
	c-0.913-0.252-1.827-0.501-2.744-0.748c-5.041-1.36-10.135-2.649-15.266-3.881c-2.799-0.672-5.608-1.326-8.426-1.965
	c-0.939-0.213-1.879-0.424-2.821-0.634c-0.94-0.21-1.883-0.418-2.825-0.625c-0.943-0.207-1.886-0.411-2.83-0.615
	c-1.415-0.305-2.833-0.607-4.251-0.905c-1.419-0.298-2.838-0.594-4.259-0.887c-4.261-0.878-8.527-1.729-12.791-2.561
	c-0.948-0.185-1.895-0.369-2.843-0.552c-0.474-0.091-0.947-0.183-1.42-0.273c-1.894-0.364-3.788-0.725-5.679-1.083
	c-0.946-0.179-1.891-0.357-2.835-0.534c-0.945-0.178-1.889-0.354-2.832-0.531c-0.944-0.176-1.887-0.352-2.828-0.527
	c-0.47-0.087-0.942-0.175-1.412-0.262c-1.882-0.349-3.761-0.696-5.636-1.043c-2.344-0.433-4.681-0.863-7.01-1.292
	c-0.932-0.172-1.862-0.343-2.791-0.515c-0.929-0.171-1.857-0.343-2.783-0.514c-1.39-0.257-2.776-0.513-4.158-0.77
	c-0.461-0.086-0.921-0.172-1.381-0.258c-1.84-0.343-3.674-0.686-5.5-1.031c-6.848-1.291-13.591-2.597-20.189-3.946
	c-0.88-0.18-1.757-0.361-2.631-0.542c-1.748-0.363-3.486-0.729-5.213-1.1c-0.863-0.185-1.723-0.372-2.58-0.559
	c-18.431-4.025-35.478-8.537-50.156-14.233c-1.014-0.394-2.022-0.793-3.024-1.196l-0.491-0.201
	c-0.823-0.333-1.643-0.669-2.459-1.009l-0.068-0.028l-1.085-0.462l-0.056-0.023l-0.565-0.241l-1.161-0.494l-0.009-0.004
	l-1.163-0.511l-0.067-0.03c-0.56-0.246-1.121-0.49-1.678-0.739l0,0l-0.124-0.054l-1.091-0.497c-0.553-0.251-1.107-0.501-1.656-0.755
	l-1.277-0.6c-0.521-0.245-1.043-0.488-1.561-0.736l-1.252-0.607c-0.526-0.255-1.053-0.509-1.577-0.768l-1.18-0.59
	c-0.538-0.269-1.077-0.538-1.613-0.811l-1.114-0.575c-0.553-0.285-1.106-0.57-1.655-0.859l-0.232-0.121l-0.856-0.458
	c-0.541-0.288-1.082-0.575-1.62-0.866l-1.117-0.612c-0.533-0.292-1.066-0.584-1.595-0.879l-0.278-0.154l-0.734-0.417
	c-0.566-0.319-1.133-0.639-1.695-0.962l-0.26-0.147l-0.656-0.383c-0.571-0.331-1.141-0.663-1.709-0.998l-0.946-0.564
	c-0.563-0.335-1.125-0.672-1.683-1.011l-0.873-0.533c-0.58-0.356-1.159-0.712-1.735-1.071l-0.79-0.496l-0.007-0.004
	c-0.6-0.377-1.199-0.756-1.794-1.138l-0.017-0.011l-0.685-0.442l-0.018-0.011c-0.605-0.391-1.208-0.783-1.808-1.178l-0.711-0.469
	c-0.618-0.409-1.233-0.82-1.847-1.234l-0.016-0.011l-0.547-0.371l-0.024-0.016l-0.317-0.218c-0.539-0.367-1.08-0.735-1.615-1.107
	l-0.002-0.002l-0.506-0.352c-0.653-0.455-1.304-0.912-1.952-1.372l-0.488-0.347c-0.663-0.473-1.324-0.948-1.982-1.427l-0.022-0.016
	l-0.361-0.263l-0.026-0.018c-0.681-0.497-1.359-0.997-2.034-1.499l-0.026-0.02l-0.293-0.219l-0.022-0.016
	c-0.699-0.523-1.397-1.049-2.091-1.578l-0.244-0.187c-0.743-0.568-1.482-1.139-2.219-1.714l-0.03-0.023l-0.013-0.009l-0.023-0.019
	c-79.298-61.952-117.568-162.516-188.057-236.835l0.055,0.078c-2.057-2.169-4.1-4.35-6.214-6.473l-0.191-0.191
	c-0.476-0.477-0.956-0.954-1.437-1.429l-0.372-0.367c-0.513-0.505-1.03-1.009-1.549-1.511l-0.38-0.368
	c-0.515-0.496-1.032-0.99-1.551-1.483l-0.432-0.409c-0.531-0.501-1.065-1.002-1.6-1.5l-0.275-0.255
	c-27.399-25.383-60.801-45.799-96.372-58.854c53.161,47.041,96.419,119.64,128.283,179.328
	c11.591,21.713,22.599,44.412,33.247,66.361c5.877,12.117,11.792,24.309,17.859,36.451c25.361,20.05,51.504,39.202,77.993,57.615
	c33.218,23.091,67.189,45.87,95.836,74.669c27.297,27.442,48.153,60.029,60.803,96.469c27.974,11.334,56.703,21.184,85.075,30.91
	c42.865,14.694,86.939,29.802,128.112,49.794c8.448,4.102,16.773,8.41,24.94,12.961c10.142-17.584,18.225-35.626,22.998-53.684
	c2.13-8.059,3.602-16.121,4.302-24.147c0.191-2.189,0.324-4.375,0.399-6.558c0.049-1.455,0.072-2.909,0.068-4.36
	C1633.84,742.085,1633.828,741.225,1633.806,740.367z"/>
<path style="fill:#632366;" d="M1633.806,740.367c-0.022-0.859-0.054-1.718-0.094-2.575l-0.069-1.286
	c-0.051-0.857-0.112-1.713-0.183-2.568c-0.319-3.849-0.841-7.681-1.579-11.492c-0.246-1.271-0.515-2.539-0.81-3.805l-0.302-1.265
	c-0.932-3.792-2.084-7.56-3.47-11.302l-0.471-1.246c-0.639-1.66-1.325-3.315-2.058-4.964c-0.55-1.237-1.127-2.47-1.731-3.7
	c-1.3-2.647-2.693-5.216-4.174-7.709c-0.422-0.712-0.853-1.418-1.291-2.118c-0.437-0.701-0.882-1.395-1.334-2.083
	c-0.451-0.688-0.91-1.37-1.375-2.047c-0.466-0.676-0.938-1.345-1.418-2.01c-0.479-0.664-0.965-1.323-1.458-1.976
	c-0.492-0.653-0.992-1.299-1.498-1.94c-0.506-0.641-1.018-1.276-1.539-1.906l-0.783-0.94c-0.526-0.624-1.058-1.242-1.596-1.855
	c-0.539-0.613-1.084-1.22-1.635-1.822s-1.109-1.198-1.672-1.789c-2.255-2.363-4.608-4.64-7.053-6.835
	c-0.612-0.549-1.228-1.092-1.851-1.63c-0.623-0.538-1.252-1.071-1.885-1.6c-0.635-0.528-1.274-1.052-1.919-1.57
	c-2.58-2.073-5.249-4.068-7.998-5.989c-1.719-1.2-3.469-2.372-5.25-3.515c-1.78-1.143-3.591-2.258-5.43-3.347
	c-0.736-0.436-1.476-0.867-2.221-1.294c-3.352-1.921-6.794-3.756-10.318-5.512c-0.783-0.39-1.571-0.776-2.362-1.158
	c-1.088-0.526-2.183-1.044-3.285-1.556c-2.756-1.279-5.558-2.512-8.399-3.706c-3.411-1.431-6.88-2.804-10.401-4.121
	c-1.761-0.659-3.535-1.303-5.32-1.935l-1.301-0.457c-2.172-0.758-4.361-1.497-6.565-2.219c-6.174-2.02-12.474-3.899-18.865-5.662
	c-0.913-0.252-1.827-0.501-2.744-0.748c-5.041-1.36-10.135-2.649-15.266-3.881c-2.799-0.672-5.608-1.326-8.426-1.965
	c-0.939-0.213-1.879-0.424-2.821-0.634c-0.94-0.21-1.883-0.418-2.825-0.625c-0.943-0.207-1.886-0.411-2.83-0.615
	c-1.415-0.305-2.833-0.607-4.251-0.905c-1.419-0.298-2.838-0.594-4.259-0.887c-4.261-0.878-8.527-1.729-12.791-2.561
	c-0.948-0.185-1.895-0.369-2.843-0.552c-0.474-0.091-0.947-0.183-1.42-0.273c-1.894-0.364-3.788-0.725-5.679-1.083
	c-0.946-0.179-1.891-0.357-2.835-0.534c-0.945-0.178-1.889-0.354-2.832-0.531c-0.944-0.176-1.887-0.352-2.828-0.527
	c-0.47-0.087-0.942-0.175-1.412-0.262c-1.882-0.349-3.761-0.696-5.636-1.043c-2.344-0.433-4.681-0.863-7.01-1.292
	c-0.932-0.172-1.862-0.343-2.791-0.515c-0.929-0.171-1.857-0.343-2.783-0.514c-1.39-0.257-2.776-0.513-4.158-0.77
	c-0.461-0.086-0.921-0.172-1.381-0.258c-1.84-0.343-3.674-0.686-5.5-1.031c-6.848-1.291-13.591-2.597-20.189-3.946
	c-0.88-0.18-1.757-0.361-2.631-0.542c-1.748-0.363-3.486-0.729-5.213-1.1c-0.863-0.185-1.723-0.372-2.58-0.559
	c-18.431-4.025-35.478-8.537-50.156-14.233c-1.014-0.394-2.022-0.793-3.024-1.196l-0.491-0.201
	c-0.823-0.333-1.643-0.669-2.459-1.009l-0.068-0.028l-1.085-0.462l-0.056-0.023l-0.565-0.241l-1.161-0.494l-0.009-0.004
	l-1.163-0.511l-0.067-0.03c-0.56-0.246-1.121-0.49-1.678-0.739l0,0l-0.124-0.054l-1.091-0.497c-0.553-0.251-1.107-0.501-1.656-0.755
	l-1.277-0.6c-0.521-0.245-1.043-0.488-1.561-0.736l-1.252-0.607c-0.526-0.255-1.053-0.509-1.577-0.768l-1.18-0.59
	c-0.538-0.269-1.077-0.538-1.613-0.811l-1.114-0.575c-0.553-0.285-1.106-0.57-1.655-0.859l-0.232-0.121l-0.856-0.458
	c-0.541-0.288-1.082-0.575-1.62-0.866l-1.117-0.612c-0.533-0.292-1.066-0.584-1.595-0.879l-0.278-0.154l-0.734-0.417
	c-0.566-0.319-1.133-0.639-1.695-0.962l-0.26-0.147l-0.656-0.383c-0.571-0.331-1.141-0.663-1.709-0.998l-0.946-0.564
	c-0.563-0.335-1.125-0.672-1.683-1.011l-0.873-0.533c-0.58-0.356-1.159-0.712-1.735-1.071l-0.79-0.496l-0.007-0.004
	c-0.6-0.377-1.199-0.756-1.794-1.138l-0.017-0.011l-0.685-0.442l-0.018-0.011c-0.605-0.391-1.208-0.783-1.808-1.178l-0.711-0.469
	c-0.618-0.409-1.233-0.82-1.847-1.234l-0.016-0.011l-0.547-0.371l-0.024-0.016l-0.317-0.218c-0.539-0.367-1.08-0.735-1.615-1.107
	l-0.002-0.002l-0.506-0.352c-0.653-0.455-1.304-0.912-1.952-1.372l-0.488-0.347c-0.663-0.473-1.324-0.948-1.982-1.427l-0.022-0.016
	l-0.361-0.263l-0.026-0.018c-0.681-0.497-1.359-0.997-2.034-1.499l-0.026-0.02l-0.293-0.219l-0.022-0.016
	c-0.699-0.523-1.397-1.049-2.091-1.578l-0.244-0.187c-0.743-0.568-1.482-1.139-2.219-1.714l-0.03-0.023l-0.013-0.009l-0.023-0.019
	c-79.298-61.952-117.568-162.516-188.057-236.835c6.712,9.264,13.182,18.62,19.624,27.675
	c27.889,39.196,52.437,80.617,79.327,120.483c22.233,32.962,47.718,62.457,79.526,86.552c28.897,21.89,61.452,38.529,94.722,52.671
	c32.673,13.888,66.188,25.875,99.889,37.003c27.996,9.244,56.295,18.502,82.496,32.202c24.19,12.649,47.729,29.909,60.874,54.454
	c15.643,29.208,13.14,62.575,4.748,93.642c-1.292,4.784-2.734,9.502-4.315,14.155c8.448,4.102,16.773,8.41,24.94,12.961
	c10.142-17.584,18.225-35.626,22.998-53.684c2.13-8.059,3.602-16.121,4.302-24.147c0.191-2.189,0.324-4.375,0.399-6.558
	c0.049-1.455,0.072-2.909,0.068-4.36C1633.84,742.085,1633.828,741.225,1633.806,740.367z"/>
<path style="fill:#632366;" d="M1578.601,825.823c-23.565,62.801-72.448,113.605-123.49,156.002
	c2.863,3.577,5.695,7.181,8.491,10.812c9.408-8.26,18.627-16.728,27.644-25.404c11.911-11.462,25.855-25.023,40.273-40.132
	c1.273-1.333,2.548-2.679,3.827-4.036c0.853-0.904,1.706-1.814,2.56-2.729c7.262-7.776,14.586-15.919,21.776-24.358
	c0.846-0.993,1.69-1.99,2.532-2.991c0.422-0.5,0.842-1.002,1.261-1.504c1.679-2.01,3.349-4.036,5.008-6.076
	c0.414-0.51,0.828-1.022,1.241-1.534c2.946-3.652,5.854-7.352,8.706-11.093c8.559-11.222,16.631-22.818,23.829-34.648
	C1594.515,833.822,1586.618,829.729,1578.601,825.823z"/>
<path style="fill:#832985;" d="M768.46,1180.094c-30.481-2.897-60.594-8.751-89.737-18.248
	c-16.596-5.409-32.772-12.419-47.947-21.114c-1.381,9.598-2.217,18.953-2.506,28.058c-0.148,4.637-0.154,9.21-0.018,13.716
	c4.529,1.586,9.076,3.1,13.623,4.545c0.849,0.269,1.697,0.537,2.545,0.801c0.848,0.265,1.696,0.527,2.545,0.787
	c6.36,1.951,12.713,3.769,19.014,5.463c2.521,0.677,5.033,1.334,7.534,1.973c12.507,3.19,24.742,5.892,36.365,8.167
	c1.163,0.228,2.318,0.451,3.468,0.67c1.534,0.292,3.055,0.576,4.564,0.854c0.754,0.139,1.506,0.275,2.255,0.411
	c0.748,0.135,1.493,0.268,2.236,0.4c0.742,0.131,1.481,0.26,2.216,0.388c1.103,0.192,2.199,0.38,3.286,0.563
	c1.45,0.245,2.886,0.483,4.307,0.714c1.066,0.173,2.124,0.343,3.172,0.508c0.699,0.111,1.394,0.22,2.086,0.326
	c0.691,0.107,1.379,0.213,2.062,0.316c1.708,0.259,3.391,0.508,5.046,0.747c8.576,1.237,17.21,2.329,25.888,3.283
	c-0.361-2.559-0.675-5.14-0.94-7.742C768.676,1197.364,768.322,1188.83,768.46,1180.094z"/>
<path style="fill:#832985;" d="M578.823,1099.081c-25.019-28.136-40.914-62.695-46.812-99.827
	c-2.505-15.765-3.203-31.733-2.359-47.626c-10.604,13.917-20.645,28.198-28.288,42.889l0.003-0.017
	c-7.926,15.231-13.252,30.908-13.834,47.094l-0.008,0.24c-0.017,0.503-0.029,1.007-0.036,1.512l-0.007,0.589l-0.001,0.973
	l0.003,0.514l0.005,0.361l0.001,0.065l0.012,0.624l0.001,0.092l0.018,0.562l0.02,0.603l0.021,0.475l0.035,0.704l0.031,0.544
	l0.078,1.157l0.032,0.393l0.083,0.957l0.041,0.432l0.135,1.273l0.015,0.13l0.151,1.205l0.013,0.1l0.034,0.25l0.192,1.328
	c2.529,16.435,8.644,31.228,17.481,44.534c0.647,0.973,1.308,1.939,1.983,2.897c2.477,3.511,5.144,6.917,7.986,10.219
	c1.034,1.201,2.09,2.388,3.169,3.562c0.539,0.587,1.084,1.17,1.634,1.75c0.826,0.87,1.664,1.733,2.514,2.588
	c0.851,0.855,1.712,1.702,2.586,2.542c0.873,0.84,1.759,1.673,2.655,2.498c0.896,0.825,1.804,1.643,2.723,2.454
	s1.848,1.614,2.788,2.41c0.628,0.53,1.259,1.058,1.895,1.583c1.272,1.048,2.563,2.084,3.872,3.107
	c0.654,0.511,1.313,1.02,1.976,1.525l0.998,0.755c0.668,0.502,1.339,1.001,2.015,1.497c1.352,0.991,2.72,1.971,4.104,2.937
	c1.385,0.967,2.784,1.921,4.199,2.863l1.064,0.705c0.712,0.468,1.426,0.933,2.145,1.395c1.796,1.155,3.615,2.29,5.454,3.408
	c1.473,0.894,2.958,1.776,4.456,2.645l1.126,0.651c1.88,1.081,3.781,2.143,5.698,3.186c1.918,1.044,3.853,2.069,5.805,3.078
	c0.781,0.403,1.564,0.803,2.35,1.201l1.18,0.594c9.853,4.933,20.091,9.426,30.516,13.513c1.668,0.654,3.341,1.297,5.018,1.93
	c0.968,0.366,1.938,0.727,2.909,1.086c-0.08-4.745-0.011-9.556,0.21-14.434c0.422-9.348,1.396-18.939,2.917-28.768
	C607.186,1126.26,591.91,1113.798,578.823,1099.081z M499.994,1010.155c-0.044,1.418-0.064,2.838-0.06,4.259
	C499.93,1012.993,499.95,1011.573,499.994,1010.155z M501.35,994.625c-0.723,5.152-1.196,10.324-1.355,15.515
	C500.154,1004.949,500.626,999.777,501.35,994.625z M499.938,1014.849c0.006,0.81,0.017,1.62,0.039,2.431
	C499.955,1016.469,499.944,1015.659,499.938,1014.849z M499.977,1017.292c0.033,1.209,0.085,2.419,0.156,3.63
	C500.063,1019.711,500.01,1018.501,499.977,1017.292z M500.234,1022.501c0.046,0.647,0.096,1.294,0.154,1.941
	C500.33,1023.794,500.28,1023.147,500.234,1022.501z M500.388,1024.442c0.085,0.956,0.182,1.912,0.292,2.868
	C500.57,1026.354,500.473,1025.397,500.388,1024.442z M500.726,1027.691l0.128,1.056L500.726,1027.691z M501.221,1031.348
	l0.065,0.423L501.221,1031.348z M501.999,1035.818l0.023,0.123L501.999,1035.818z M502.04,1036.024
	c0.132,0.663,0.272,1.327,0.417,1.991C502.312,1037.351,502.171,1036.687,502.04,1036.024z"/>
<path style="fill:#832985;" d="M934.137,1170.761c-51.754,9.691-105.692,14.193-158.662,9.948
	c-0.156,8.609,0.193,17.225,1.122,25.795c0.278,2.561,0.609,5.118,0.993,7.67c10.569,1.065,21.2,1.925,31.877,2.579
	c3.124,0.191,6.252,0.365,9.383,0.521c1.566,0.078,3.132,0.152,4.699,0.222c3.135,0.139,6.272,0.261,9.412,0.365
	c3.14,0.105,6.282,0.192,9.427,0.262c1.573,0.035,3.146,0.066,4.719,0.092c4.72,0.079,9.444,0.12,14.171,0.123
	c1.379,0,2.758-0.002,4.136-0.008c8.274-0.035,16.554-0.187,24.832-0.454c1.38-0.044,2.759-0.092,4.139-0.143
	c4.73-0.175,9.458-0.387,14.183-0.638c1.576-0.083,3.149-0.171,4.725-0.262c3.148-0.183,6.297-0.383,9.442-0.599
	c3.145-0.216,6.289-0.449,9.429-0.699c3.141-0.249,6.28-0.515,9.415-0.797c3.135-0.282,6.268-0.58,9.397-0.895
	c7.823-0.787,15.625-1.675,23.397-2.665c7.773-0.989,15.516-2.078,23.222-3.267c15.414-2.377,30.682-5.152,45.743-8.312
	c3.59-0.753,7.177-1.53,10.76-2.325c0.521-4.074,1.032-8.155,1.531-12.243c2.022-16.558,3.854-33.231,5.443-49.99
	C1019.862,1150.741,977.216,1162.695,934.137,1170.761z"/>
<path style="fill:#632366;" d="M620.915,1165.357c-22.459-10.82-43.56-24.138-62.294-40.548
	c-24.976-21.877-47.742-51.758-55.649-84.543c-3.714-15.396-3.736-30.671-1.604-45.766c-7.926,15.231-13.252,30.908-13.834,47.094
	l-0.008,0.24c-0.017,0.503-0.029,1.007-0.036,1.512l-0.007,0.589l-0.001,0.973l0.003,0.514l0.005,0.361l0.001,0.065l0.012,0.624
	l0.001,0.092l0.018,0.562l0.02,0.603l0.021,0.475l0.035,0.704l0.031,0.544l0.078,1.157l0.032,0.393l0.083,0.957l0.041,0.432
	l0.135,1.273l0.015,0.13l0.151,1.205l0.013,0.1l0.034,0.25l0.192,1.328c2.529,16.435,8.644,31.228,17.481,44.534
	c0.647,0.973,1.308,1.939,1.983,2.897c2.477,3.511,5.144,6.917,7.986,10.219c1.034,1.201,2.09,2.388,3.169,3.562
	c0.539,0.587,1.084,1.17,1.634,1.75c0.826,0.87,1.664,1.733,2.514,2.588c0.851,0.855,1.712,1.702,2.586,2.542
	c0.873,0.84,1.759,1.673,2.655,2.498c0.896,0.825,1.804,1.643,2.723,2.454s1.848,1.614,2.788,2.41
	c0.628,0.53,1.259,1.058,1.895,1.583c1.272,1.048,2.563,2.084,3.872,3.107c0.654,0.511,1.313,1.02,1.976,1.525l0.998,0.755
	c0.668,0.502,1.339,1.001,2.015,1.497c1.352,0.991,2.72,1.971,4.104,2.937c1.385,0.967,2.784,1.921,4.199,2.863l1.064,0.705
	c0.712,0.468,1.426,0.933,2.145,1.395c1.796,1.155,3.615,2.29,5.454,3.408c1.473,0.894,2.958,1.776,4.456,2.645l1.126,0.651
	c1.88,1.081,3.781,2.143,5.698,3.186c1.918,1.044,3.853,2.069,5.805,3.078c0.781,0.403,1.564,0.803,2.35,1.201l1.18,0.594
	c9.853,4.933,20.091,9.426,30.516,13.513c1.668,0.654,3.341,1.297,5.018,1.93c0.968,0.366,1.938,0.727,2.909,1.086
	C620.625,1175.047,620.694,1170.235,620.915,1165.357z"/>
<path style="fill:#632366;" d="M741.86,1201.69c-38.333-6.408-77.532-16.594-113.59-32.9c-0.148,4.637-0.154,9.21-0.018,13.716
	c4.529,1.586,9.076,3.1,13.623,4.545c0.849,0.269,1.697,0.537,2.545,0.801c0.848,0.265,1.696,0.527,2.545,0.787
	c6.36,1.951,12.713,3.769,19.014,5.463c2.521,0.677,5.033,1.334,7.534,1.973c12.507,3.19,24.742,5.892,36.365,8.167
	c1.163,0.228,2.318,0.451,3.468,0.67c1.534,0.292,3.055,0.576,4.564,0.854c0.754,0.139,1.506,0.275,2.255,0.411
	c0.748,0.135,1.493,0.268,2.236,0.4c0.742,0.131,1.481,0.26,2.216,0.388c1.103,0.192,2.199,0.38,3.286,0.563
	c1.45,0.245,2.886,0.483,4.307,0.714c1.066,0.173,2.124,0.343,3.172,0.508c0.699,0.111,1.394,0.22,2.086,0.326
	c0.691,0.107,1.379,0.213,2.062,0.316c1.708,0.259,3.391,0.508,5.046,0.747c8.576,1.237,17.21,2.329,25.888,3.283
	c-0.361-2.559-0.675-5.14-0.94-7.742C760.27,1204.552,751.046,1203.226,741.86,1201.69z"/>
<path style="fill:#632366;" d="M1054.097,1197.275c0.521-4.074,1.032-8.155,1.531-12.243c-24.464,6.08-49.191,11.152-74.136,15.141
	c-67.371,10.775-136.853,13.879-204.896,6.332c0.278,2.561,0.609,5.118,0.993,7.67c10.569,1.065,21.2,1.925,31.877,2.579
	c3.124,0.191,6.252,0.365,9.383,0.521c1.566,0.078,3.132,0.152,4.699,0.222c3.135,0.139,6.272,0.261,9.412,0.365
	c3.14,0.105,6.282,0.192,9.427,0.262c1.573,0.035,3.146,0.066,4.719,0.092c4.72,0.079,9.444,0.12,14.171,0.123
	c1.379,0,2.758-0.002,4.136-0.008c8.274-0.035,16.554-0.187,24.832-0.454c1.38-0.044,2.759-0.092,4.139-0.143
	c4.73-0.175,9.458-0.387,14.183-0.638c1.576-0.083,3.149-0.171,4.725-0.262c3.148-0.183,6.297-0.383,9.442-0.599
	c3.145-0.216,6.289-0.449,9.429-0.699c3.141-0.249,6.28-0.515,9.415-0.797c3.135-0.282,6.268-0.58,9.397-0.895
	c7.823-0.787,15.625-1.675,23.397-2.665c7.773-0.989,15.516-2.078,23.222-3.267c15.414-2.377,30.682-5.152,45.743-8.312
	C1046.927,1198.847,1050.514,1198.07,1054.097,1197.275z"/>
<path style="fill:#251C34;" d="M628.27,1168.79c0.289-9.105,1.125-18.46,2.506-28.058c4.273-29.704,13.762-61.736,28.451-95.91
	c7.881-18.334,16.719-36.565,25.267-54.195c18.197-37.534,37.013-76.346,47.878-118.716c15.826-61.72,14.045-126.312,7.047-190.732
	c-3.071-28.263-7.146-56.493-11.18-84.432c-2.207-15.286-4.407-30.521-6.431-45.671l-0.21-1.576
	c-6.294-47.094-13.62-101.921-14.894-155.353c-0.842-35.312,0.961-70.014,7.452-101.472c-3.765,5.531-7.281,11.211-10.568,17.021
	c-5.18,35.185-5.437,73.357-3.259,111.395c2.58,45.051,8.575,89.914,13.852,129.401l0.212,1.574
	c2.027,15.177,4.229,30.439,6.441,45.751c4.749,32.9,9.557,66.205,12.696,99.454c5.534,58.611,5.886,117.048-8.406,172.782
	c-10.677,41.642-29.328,80.109-47.361,117.311c-8.585,17.705-17.46,36.014-25.408,54.502c-14.441,33.597-23.954,65.229-28.52,94.725
	c-1.521,9.828-2.496,19.42-2.917,28.768c-0.221,4.878-0.289,9.69-0.21,14.434c2.509,0.927,5.024,1.833,7.547,2.715
	C628.116,1178,628.122,1173.427,628.27,1168.79z"/>
<path style="fill:#251C34;" d="M775.474,1180.709c0.779-43.183,14.171-86.163,29.827-122.007
	c10.356-23.71,22.553-47.622,34.351-70.745c6.845-13.419,13.743-26.944,20.365-40.587c0.95,0.484,1.906,0.958,2.868,1.42
	l0.742,0.354c0.496,0.234,0.994,0.466,1.493,0.695c2.495,1.144,5.027,2.213,7.595,3.207c0.513,0.198,1.028,0.395,1.544,0.587
	l0.775,0.286c0.518,0.19,1.036,0.376,1.556,0.56l0.781,0.272c1.043,0.361,2.091,0.709,3.143,1.045
	c0.527,0.168,1.054,0.332,1.583,0.494c0.793,0.242,1.59,0.477,2.388,0.706l0.8,0.225c0.533,0.149,1.069,0.294,1.605,0.437
	c0.536,0.143,1.073,0.282,1.612,0.418c0.538,0.136,1.077,0.268,1.617,0.398c1.081,0.259,2.166,0.506,3.256,0.739
	c0.545,0.116,1.091,0.229,1.637,0.339c3.281,0.659,6.598,1.2,9.947,1.618c0.558,0.07,1.117,0.136,1.676,0.199
	c1.399,0.157,2.804,0.292,4.214,0.406c0.563,0.045,1.128,0.088,1.694,0.126c9.61,0.654,19.438,0.295,29.357-1.167
	c1.222-0.18,2.438-0.376,3.648-0.587c0.605-0.106,1.208-0.215,1.81-0.329c0.602-0.114,1.201-0.231,1.8-0.352
	c0.598-0.121,1.195-0.245,1.79-0.374c0.595-0.129,1.188-0.261,1.78-0.397c1.184-0.272,2.36-0.559,3.53-0.861l0.877-0.229
	c0.583-0.155,1.164-0.313,1.744-0.475c2.029-0.567,4.037-1.178,6.022-1.832c0.851-0.28,1.698-0.569,2.54-0.865
	c1.966-0.691,3.909-1.425,5.829-2.201c1.097-0.444,2.186-0.9,3.267-1.37c0.811-0.352,1.617-0.713,2.419-1.08
	c2.138-0.98,4.245-2.013,6.317-3.096l0.776-0.409c0.774-0.411,1.544-0.829,2.308-1.254c0.765-0.425,1.524-0.857,2.28-1.296
	c1.761-1.024,3.495-2.086,5.203-3.185l0.73-0.472c0.728-0.475,1.452-0.957,2.17-1.445c2.153-1.465,4.261-2.989,6.32-4.568
	c0.687-0.527,1.368-1.06,2.044-1.599l0.673-0.541l1.337-1.094c2.437-2.021,4.8-4.123,7.084-6.302
	c0.831-0.792,1.651-1.595,2.462-2.407c5.873-5.889,11.196-12.297,15.903-19.136l-0.78,0.321l-0.11,0.045
	c-8.72,3.556-17.894,6.32-27.438,8.216l-0.002,0.018l-1.009,0.197l-0.58,0.11l-1.162,0.214l-0.583,0.104l-1.167,0.2
	c-0.975,0.163-1.954,0.317-2.936,0.462l-0.847,0.123l-0.28,0.039l-0.573,0.079l-0.325,0.044l-0.64,0.084l-0.643,0.082l-0.211,0.026
	c-6.193,0.765-12.347,1.135-18.44,1.14l-0.018,0.008c-33.157,0.021-64.448-10.97-89.78-29.932
	c9.215-25.727,15.82-51.925,17.778-78.678c5.795-79.193-29.323-155.924-63.286-230.131c-7.44-16.256-15.133-33.067-22.227-49.554
	c-11.423-26.551-21.189-51.764-29.3-75.626c-21.761-64.024-31.591-118.315-29.459-162.565c0.881-18.286,3.804-34.858,8.773-49.693
	c-3.438,2.159-6.821,4.455-10.149,6.892c-4.291,15.577-6.565,32.736-6.823,51.517c-0.617,45.122,10.421,99.612,33.168,164.046
	c7.648,21.664,16.617,44.451,26.915,68.385c7.128,16.568,14.84,33.415,22.297,49.71c33.569,73.35,68.282,149.193,62.626,226.472
	c-1.839,25.143-7.947,49.907-16.522,74.316c-27.321-22.781-46.686-55.308-52.284-93.27c-3.186-21.604-1.586-42.807,3.986-62.546
	l0.017-0.013c0.215-0.764,0.425-1.53,0.653-2.289l-0.512,0.441l-0.138,0.119l-0.439,0.382l-0.073,0.064l-0.512,0.45l-0.112,0.099
	l-0.423,0.376l-0.106,0.094l-0.513,0.461l-0.045,0.041l-0.475,0.433l-0.093,0.085l-1.034,0.956l-0.074,0.069l-0.507,0.477
	l-1.09,1.041l-0.004,0.003c-27.248,26.329-43.231,63.605-41.706,103.445l0.002,0.029l0.02,0.516l0.002,0.033l0.022,0.504
	l0.003,0.055l0.023,0.475l0.004,0.092l0.023,0.442l0.006,0.122l0.025,0.425l0.007,0.131l0.024,0.404l0.011,0.173l0.023,0.367
	l0.013,0.198l0.024,0.349l0.014,0.201l0.027,0.372l0.012,0.168l0.028,0.364l0.018,0.228l0.025,0.317l0.021,0.251l0.025,0.3
	l0.023,0.263l0.025,0.291l0.024,0.266l0.027,0.289l0.026,0.275l0.027,0.281l0.027,0.268l0.029,0.291l0.029,0.28l0.028,0.269
	l0.032,0.294l0.029,0.266l0.037,0.336l0.023,0.205l0.043,0.372l0.023,0.194l0.043,0.358l0.024,0.2l0.047,0.376l0.023,0.183
	l0.049,0.38l0.023,0.181l0.064,0.478l0.01,0.074l0.023,0.171v0l0.044,0.322l0.01,0.072l0.039,0.28l0.021,0.152l0.1,0.694
	c3.271,22.172,11.693,42.312,23.874,59.382l0.483,0.672c3.07,4.247,6.374,8.302,9.89,12.148l0.557,0.605l1.124,1.201l0.568,0.595
	c3.794,3.955,7.817,7.675,12.046,11.141c0.634,0.52,1.273,1.034,1.916,1.542c1.072,0.848,2.157,1.679,3.254,2.494l0.66,0.487
	c1.322,0.97,2.662,1.916,4.018,2.839l0.679,0.459c1.589,1.067,3.2,2.1,4.832,3.1c0.7,0.429,1.404,0.851,2.112,1.267l0.699,0.406
	c-6.643,13.7-13.575,27.289-20.452,40.77c-11.846,23.22-24.095,47.235-34.543,71.15c-19.421,44.465-29.381,86.342-29.982,124.388
	c-0.138,8.736,0.216,17.27,1.064,25.587c0.265,2.602,0.579,5.183,0.94,7.742c2.372,0.26,4.747,0.512,7.126,0.752
	c-0.384-2.551-0.714-5.108-0.993-7.67C775.668,1197.935,775.319,1189.318,775.474,1180.709z"/>
<path style="fill:#251C34;" d="M1581.135,818.733c-41.173-19.992-85.247-35.1-128.112-49.794
	c-28.372-9.726-57.101-19.576-85.075-30.91c-47.479-19.237-92.782-42.75-130.46-77.204
	c-45.478-41.583-76.436-96.045-104.172-151.549c-6.068-12.142-11.982-24.333-17.859-36.451
	c-10.648-21.949-21.656-44.648-33.247-66.361c-31.864-59.689-75.121-132.287-128.283-179.328l-0.115-0.102
	c-6.369-2.337-12.808-4.438-19.294-6.289l0.139,0.106c58.738,44.931,106.542,124.682,140.951,189.136
	c11.523,21.588,22.499,44.219,33.116,66.105c3.562,7.344,7.137,14.716,10.753,22.087c29.926,61.027,62.565,122.088,112.96,168.17
	c40.075,36.646,88.28,61.035,138.53,80.961c26.273,10.418,53.105,19.616,79.627,28.707c42.898,14.704,87.013,29.828,128.006,49.805
	c8.017,3.906,15.914,7.999,23.659,12.31h0c1.301-2.139,2.574-4.285,3.816-6.438l-0.001,0
	C1597.908,827.143,1589.583,822.835,1581.135,818.733z"/>
<path style="fill:#251C34;" d="M1360.913,884.587c-7.762-6.612-15.672-13.057-23.724-19.323
	c-23.873-18.58-49.422-36.024-74.132-52.894c-54.864-37.462-111.598-76.2-152.321-129.177
	c-37.52-48.809-60.075-107.968-81.888-165.181c-6.202-16.268-12.616-33.089-19.276-49.417
	c-25.392-62.258-87.982-203.144-154.164-257.109c-3.674,0.22-7.334,0.539-10.978,0.957
	c66.859,48.077,132.203,195.203,158.214,258.978c6.628,16.251,13.025,33.03,19.213,49.257
	c22.005,57.718,44.757,117.398,82.945,167.077c41.452,53.924,98.687,93.003,154.036,130.796
	c24.614,16.806,50.066,34.185,73.756,52.619c8.526,6.634,16.889,13.471,25.088,20.497c33.455,28.673,64.133,60.525,91.655,94.913
	c2.906,3.631,5.779,7.289,8.614,10.975c1.891-1.631,3.775-3.27,5.651-4.918c-2.795-3.631-5.628-7.235-8.491-10.812
	C1426.867,946.542,1395.334,913.903,1360.913,884.587z"/>
<path style="fill:#251C34;" d="M1063.415,1183.06c2.042-16.906,3.885-33.932,5.471-51.047
	c15.558-167.745,6.622-344.061-79.585-500.984c-20.297-36.948-44.887-72.653-68.665-107.184
	c-22.395-32.517-45.552-66.143-64.979-100.621c-12.027-21.346-21.948-42.142-29.759-62.356
	c-10.676-27.627-17.409-54.167-20.183-79.532c-2.304-21.07-1.875-41.331,1.295-60.731c-2.69,0.889-5.362,1.843-8.013,2.864
	c-2.512,17.49-2.896,35.624-1.16,54.368c2.801,30.236,11.119,62.06,24.931,95.334c7.269,17.514,16.061,35.43,26.37,53.727
	c19.593,34.773,42.845,68.538,65.335,101.193c23.673,34.378,48.154,69.925,68.27,106.543
	c85.892,156.351,94.238,332.697,78.328,500.408c-1.589,16.759-3.422,33.431-5.443,49.99c-0.499,4.088-1.009,8.169-1.531,12.243h0
	c2.594-0.576,5.187-1.162,7.776-1.76h0.001C1062.399,1191.371,1062.913,1187.22,1063.415,1183.06z"/>
<path style="fill:#251C34;" d="M921.192,684.703c2.029-6.99,6.436-33.49,27.227-40.412c-7.127-0.796-12.057-2.151-17.243-6.004
	c-4.691-3.486-10.547-11.654-13.542-24.078c-1.729,12.662-6.733,21.378-11.049,25.319c-4.771,4.356-9.54,6.2-16.551,7.711
	C911.417,652.031,918.469,677.953,921.192,684.703z"/>
<path style="fill:#251C34;" d="M1488.702,764.68c3.621-10.469,12.352-50.412,44.485-59.337
	c-10.772-1.757-18.163-4.194-25.748-10.449c-6.863-5.659-15.138-18.524-18.737-37.638c-3.6,19.114-11.874,31.979-18.737,37.638
	c-7.586,6.255-14.976,8.692-25.748,10.449C1476.349,714.268,1485.081,754.211,1488.702,764.68z"/>
<path style="fill:#251C34;" d="M948.613,1044.807c-1.882,9.991-6.207,16.716-9.794,19.675c-3.965,3.269-7.828,4.544-13.459,5.462
	c16.797,4.666,21.361,25.545,23.254,31.017c1.893-5.472,6.457-26.352,23.254-31.017c-5.631-0.918-9.494-2.193-13.459-5.462
	C954.82,1061.524,950.495,1054.798,948.613,1044.807z"/>
<path style="fill:#251C34;" d="M1079.911,798.965c1.077-3.113,3.673-14.991,13.229-17.646c-3.203-0.522-5.401-1.247-7.657-3.107
	c-2.041-1.683-4.501-5.509-5.572-11.192c-1.07,5.684-3.531,9.51-5.572,11.192c-2.256,1.86-4.454,2.585-7.657,3.107
	C1076.238,783.974,1078.834,795.852,1079.911,798.965z"/>
<path style="fill:#251C34;" d="M788.279,601.339c1.077-3.113,3.673-14.991,13.229-17.646c-3.203-0.522-5.401-1.247-7.657-3.107
	c-2.041-1.683-4.502-5.508-5.572-11.192c-1.071,5.684-3.531,9.51-5.572,11.192c-2.257,1.86-4.454,2.585-7.657,3.107
	C784.605,586.348,787.202,598.226,788.279,601.339z"/>
<path style="fill:#251C34;" d="M1055.709,502.17c1.077-3.113,3.674-14.991,13.229-17.645c-3.203-0.522-5.401-1.247-7.656-3.107
	c-2.042-1.683-4.502-5.509-5.573-11.193c-1.07,5.684-3.531,9.51-5.572,11.193c-2.256,1.86-4.454,2.585-7.657,3.107
	C1052.036,487.179,1054.632,499.058,1055.709,502.17z"/>
<path style="fill:#251C34;" d="M872.707,339.974c2.147-6.206,7.323-29.888,26.375-35.18c-6.386-1.041-10.768-2.487-15.265-6.195
	c-4.069-3.355-8.975-10.983-11.109-22.315c-2.134,11.332-7.04,18.96-11.109,22.315c-4.498,3.708-8.88,5.154-15.266,6.195
	C865.384,310.086,870.561,333.768,872.707,339.974z"/>
<path style="fill:#251C34;" d="M1442.623,853.108c1.077-3.113,3.674-14.991,13.229-17.645c-3.203-0.522-5.401-1.247-7.657-3.107
	c-2.041-1.683-4.501-5.509-5.572-11.193c-1.071,5.684-3.531,9.51-5.572,11.193c-2.256,1.86-4.454,2.585-7.657,3.107
	C1438.95,838.117,1441.546,849.995,1442.623,853.108z"/>
<path style="fill:#251C34;" d="M733.606,966.069c-1.66,18.453-8.324,31.411-14.312,37.405c-6.618,6.626-13.402,9.616-23.454,12.27
	c31.285,5.514,43.228,42.584,47.623,52.177c2.472-10.257,7.086-48.93,36.734-60.341c-10.375-0.677-17.605-2.31-25.372-7.544
	C747.798,995.301,738.773,983.862,733.606,966.069z"/>
<path style="fill:#251C34;" d="M1194.553,1035.042c3.449-9.972,11.767-48.02,42.375-56.523c-10.26-1.673-17.301-3.995-24.527-9.953
	c-6.537-5.391-14.42-17.646-17.848-35.853c-3.429,18.207-11.311,30.462-17.848,35.853c-7.226,5.958-14.266,8.28-24.527,9.953
	C1182.787,987.021,1191.104,1025.07,1194.553,1035.042z"/>
<path style="fill:#251C34;" d="M659.943,853.447c0.793-4.018,1.959-19.091,13.273-23.994c-4.034-0.095-6.865-0.613-9.961-2.517
	c-2.801-1.724-6.486-6.014-8.777-12.831c-0.346,7.183-2.721,12.315-4.947,14.737c-2.46,2.677-5.043,3.945-8.898,5.137
	C652.855,835.613,658.085,849.798,659.943,853.447z"/>
</svg>
